<?xml version="1.0" encoding="utf-8"?>
<!-- Generator: Adobe Illustrator 27.2.0, SVG Export Plug-In . SVG Version: 6.00 Build 0)  -->
<svg version="1.1" id="Layer_1" xmlns="http://www.w3.org/2000/svg" xmlns:xlink="http://www.w3.org/1999/xlink" x="0px" y="0px"
	 viewBox="0 0 40 40" style="enable-background:new 0 0 40 40;" xml:space="preserve">
<style type="text/css">
	.st0{fill:#21D789;}
	.st1{fill:#3BEA62;}
	.st2{fill:#B74AF7;}
	.st3{fill:#6B57FF;}
	.st4{fill:#FF45ED;}
	.st5{fill:#2F3896;}
	.st6{fill:url(#SVGID_1_);}
</style>
<g>
	<g>
		<g>
			<path class="st0" d="M9.3,39.9l-1.8-1.8C7.2,37.8,7,37.3,7,36.8V1.9c0-1,0.8-1.7,1.7-1.7l21.2,0c0.5,0,0.9,0.2,1.2,0.5L32.5,2
				C32.8,2.3,33,2.7,33,3.2V5L19.4,39.9H9.3z"/>
		</g>
		<g>
			<path class="st1" d="M30,0v0.3c0.4,0,0.8,0.2,1.1,0.5l1.3,1.3c0.3,0.3,0.5,0.7,0.5,1.1v1.7L19.3,39.7h-10L7.6,38
				c-0.3-0.3-0.5-0.7-0.5-1.1V1.9c0-0.9,0.7-1.6,1.6-1.6l21.2,0L30,0 M30,0C30,0,30,0,30,0L8.7,0c-1,0-1.9,0.8-1.9,1.9v34.9
				c0,0.5,0.2,1,0.6,1.3L9.2,40h10.3L33.2,5V3.2c0-0.5-0.2-1-0.6-1.3l-1.3-1.3C30.9,0.2,30.5,0,30,0L30,0z"/>
		</g>
	</g>
	<g>
		<path class="st1" d="M11.1,2.4h21.3c0.4,0,0.8,0.4,0.8,0.8v29.4c0,4.1-3.3,7.4-7.4,7.4H9.2V4.3C9.2,3.3,10.1,2.4,11.1,2.4z"/>
	</g>
	<g>
		<path class="st2" d="M14.1,6h14.1c1.1,0,2,0.9,2,2v10.7c0,1.1-0.9,2-2,2H14.1c-1.1,0-2-0.9-2-2V8C12.2,6.9,13.1,6,14.1,6z"/>
	</g>
	<g>
		<polygon class="st3" points="19.2,25.4 16.9,25.4 16.9,23.1 14.5,23.1 14.5,25.4 12.2,25.4 12.2,27.8 14.5,27.8 14.5,30.1 
			16.9,30.1 16.9,27.8 19.2,27.8 		"/>
	</g>
	<g>
		<circle class="st4" cx="28.2" cy="24.8" r="2"/>
	</g>
	<g>
		<circle class="st4" cx="24.8" cy="28.3" r="2"/>
	</g>
	<g>
		<g>
			<path class="st0" d="M27.2,38.1c-0.1,0-0.2,0-0.3-0.1l-2.3-2.3c-0.2-0.2-0.2-0.4,0-0.6c0.2-0.2,0.4-0.2,0.6,0l2.3,2.3
				c0.2,0.2,0.2,0.4,0,0.6C27.5,38.1,27.3,38.1,27.2,38.1z"/>
		</g>
		<g>
			<path class="st0" d="M28.5,36.8c-0.1,0-0.2,0-0.3-0.1L26,34.4c-0.2-0.2-0.2-0.4,0-0.6c0.2-0.2,0.4-0.2,0.6,0l2.3,2.3
				c0.2,0.2,0.2,0.4,0,0.6C28.8,36.8,28.6,36.8,28.5,36.8z"/>
		</g>
		<g>
			<path class="st0" d="M29.8,35.5c-0.1,0-0.2,0-0.3-0.1l-2.3-2.3c-0.2-0.2-0.2-0.4,0-0.6c0.2-0.2,0.4-0.2,0.6,0l2.3,2.3
				c0.2,0.2,0.2,0.4,0,0.6C30.1,35.5,29.9,35.5,29.8,35.5z"/>
		</g>
		<g>
			<path class="st0" d="M31.1,34.2c-0.1,0-0.2,0-0.3-0.1l-2.3-2.3c-0.2-0.2-0.2-0.4,0-0.6c0.2-0.2,0.4-0.2,0.6,0l2.3,2.3
				c0.2,0.2,0.2,0.4,0,0.6C31.4,34.2,31.2,34.2,31.1,34.2z"/>
		</g>
	</g>
	<g>
		<path class="st2" d="M16.5,35.3c-0.1,0-0.3,0-0.3-0.1c-0.2-0.2-0.2-0.5,0-0.7l2.1-2.1c0.2-0.2,0.5-0.2,0.7,0
			c0.2,0.2,0.2,0.5,0,0.7l-2.1,2.1C16.7,35.3,16.6,35.3,16.5,35.3z"/>
	</g>
	<g>
		<path class="st2" d="M19.4,35.3c-0.1,0-0.3,0-0.3-0.1c-0.2-0.2-0.2-0.5,0-0.7l2.1-2.1c0.2-0.2,0.5-0.2,0.7,0
			c0.2,0.2,0.2,0.5,0,0.7l-2.1,2.1C19.6,35.3,19.5,35.3,19.4,35.3z"/>
	</g>
	<g>
		<path class="st1" d="M8.1,16.2c-0.2,0-0.4-0.2-0.4-0.4v-4.9c0-0.2,0.2-0.4,0.4-0.4c0.2,0,0.4,0.2,0.4,0.4v4.9
			C8.5,16,8.3,16.2,8.1,16.2z"/>
	</g>
	<g>
		<path class="st3" d="M8.1,10.8c-0.5,0.7-0.9,1.5-0.9,2.5c0,0.9,0.3,1.8,0.9,2.5V10.8z"/>
	</g>
	<g>
		<rect x="13.1" y="6.8" class="st5" width="16.1" height="13.1"/>
	</g>
	
		<radialGradient id="SVGID_1_" cx="26.5064" cy="1268.3927" r="11.477" fx="29.9335" fy="1257.4393" gradientTransform="matrix(0.9997 0 0 0.9997 -0.6258 -1259.3145)" gradientUnits="userSpaceOnUse">
		<stop  offset="3.435144e-03" style="stop-color:#FE2857"/>
		<stop  offset="0.4689" style="stop-color:#AF1DF5"/>
		<stop  offset="1" style="stop-color:#6B57FF"/>
	</radialGradient>
	<polygon class="st6" points="26.2,18.3 16.2,18.3 16.2,8.3 26.2,8.3 21.1,13.2 	"/>
</g>
</svg>
